<?xml version="1.0" encoding="UTF-8"?>
<svg xmlns="http://www.w3.org/2000/svg" width="64" height="64" viewBox="0 0 64 64">
  <!-- Nuvem azul do Google / RDrive -->
  <path fill="#4285F4" d="M17.8,24.6 C16.5,24.6 15.3,24.9 14.2,25.3 C11.3,26.4 9,29.1 9,32.3 C9,36.1 12.1,39.1 15.9,39.1 L48.1,39.1 C51.9,39.1 55,36 55,32.2 C55,28.5 52,25.3 48.3,25.3 C48.1,25.3 47.9,25.3 47.7,25.3 C46,19.3 40.5,15 34,15 C28.3,15 23.3,18.5 21.1,23.5 C19.9,24.3 18.6,24.6 17.8,24.6 Z"/>
  <!-- Drive / HD inferior verde -->
  <path fill="#34A853" d="M16 42 h32 c 2.2,0 4,1.8 4,4 v6 c 0,2.2 -1.8,4 -4,4 h-32 c -2.2,0 -4,-1.8 -4,-4 v-6 c 0,-2.2 1.8,-4 4,-4 z"/>
  <!-- LED indicador de leitura branco -->
  <circle fill="#FFFFFF" cx="22" cy="49" r="2.5"/>
</svg>
